v -10.0000 -6.5000 0.0000
v 10.0000 -6.5000 0.0000
v 10.0000 6.5000 0.0000
v -10.0000 6.5000 0.0000
v -7.0000 -3.5000 1.0000
v 7.0000 -3.5000 1.0000
v 7.0000 3.5000 1.0000
v -7.0000 3.5000 1.0000
vn 0.0000 0.0000 -1.0000
vn 0.0000 0.0000 1.0000
vn 0.0000 -0.3162 0.9487
vn 0.3162 0.0000 0.9487
vn 0.0000 0.3162 0.9487
vn -0.3162 0.0000 0.9487
f 4//1 3//1 2//1
f 4//1 2//1 1//1
f 5//2 6//2 7//2
f 5//2 7//2 8//2
f 1//3 2//3 6//3
f 1//3 6//3 5//3
f 2//4 3//4 7//4
f 2//4 7//4 6//4
f 3//5 4//5 8//5
f 3//5 8//5 7//5
f 4//6 1//6 5//6
f 4//6 5//6 8//6
